<svg width="20" height="20" viewBox="0 0 20 20" fill="none" xmlns="http://www.w3.org/2000/svg">
<g clip-path="url(#clip0_86_3314)">
<path d="M17.0503 0H2.94822C1.3267 0 0 1.3267 0 2.94822V17.0518C0 18.6733 1.3267 20 2.94822 20H17.0518C18.6733 20 20 18.6733 20 17.0518V2.94822C19.9985 1.3267 18.6733 0 17.0503 0ZM16.8609 10.6748H14.4876V19.2615H10.9364V10.6748H9.16012V7.71476H10.9364V5.93846C10.9364 3.52386 11.9388 2.08734 14.7912 2.08734H17.1623V5.04662H15.6794C14.5708 5.04662 14.4971 5.46158 14.4971 6.23328L14.4876 7.71476H17.1741L16.8609 10.6748Z" fill="#374151"/>
</g>
<defs>
<clipPath id="clip0_86_3314">
<rect width="20" height="20" fill="white"/>
</clipPath>
</defs>
</svg>
