<svg width="26" height="20" viewBox="0 0 26 20" fill="none" xmlns="http://www.w3.org/2000/svg">
<path d="M25.8294 4.55574C25.8294 2.27059 24.1486 0.432305 22.0716 0.432305C19.2583 0.300781 16.3892 0.25 13.4571 0.25H12.543C9.61803 0.25 6.74381 0.300781 3.93053 0.432812C1.85866 0.432812 0.177799 2.28125 0.177799 4.56641C0.0508459 6.37371 -0.00298221 8.18152 6.46642e-05 9.98934C-0.00501346 11.7971 0.0525386 13.6067 0.172721 15.4179C0.172721 17.703 1.85358 19.5565 3.92546 19.5565C6.88092 19.6936 9.91256 19.7546 12.995 19.7495C16.0825 19.7596 19.1057 19.6953 22.0645 19.5565C24.1415 19.5565 25.8223 17.703 25.8223 15.4179C25.9442 13.605 26.0001 11.7971 25.995 9.98426C26.0065 8.17645 25.9513 6.36694 25.8294 4.55574ZM10.5118 14.971V4.99246L17.8751 9.97918L10.5118 14.971Z" fill="#9CA3AF"/>
</svg>
