<svg width="20" height="16" viewBox="0 0 20 16" fill="none" xmlns="http://www.w3.org/2000/svg">
<path d="M19.869 3.81211C19.869 2.0543 18.576 0.640234 16.9784 0.640234C14.8143 0.539062 12.6073 0.5 10.3518 0.5H9.64867C7.39867 0.5 5.18774 0.539062 3.02367 0.640625C1.42992 0.640625 0.136956 2.0625 0.136956 3.82031C0.0393 5.21055 -0.00210621 6.60117 0.000237542 7.9918C-0.00366871 9.38242 0.0406021 10.7743 0.13305 12.1676C0.13305 13.9254 1.42602 15.3512 3.01977 15.3512C5.29321 15.4566 7.62524 15.5035 9.99633 15.4996C12.3713 15.5074 14.6969 15.4579 16.9729 15.3512C18.5705 15.3512 19.8635 13.9254 19.8635 12.1676C19.9573 10.773 20.0002 9.38242 19.9963 7.98789C20.0052 6.59727 19.9627 5.20534 19.869 3.81211ZM8.08617 11.8238V4.14805L13.7502 7.98398L8.08617 11.8238Z" fill="#4B5563"/>
</svg>
