<svg width="26" height="20" viewBox="0 0 26 20" fill="none" xmlns="http://www.w3.org/2000/svg">
<path d="M25.8297 4.55574C25.8297 2.27059 24.1488 0.432305 22.0719 0.432305C19.2586 0.300781 16.3894 0.25 13.4573 0.25H12.5433C9.61828 0.25 6.74406 0.300781 3.93078 0.432812C1.8589 0.432812 0.178043 2.28125 0.178043 4.56641C0.0510901 6.37371 -0.00273807 8.18152 0.000308805 9.98934C-0.00476932 11.7971 0.0527828 13.6067 0.172965 15.4179C0.172965 17.703 1.85382 19.5565 3.9257 19.5565C6.88117 19.6936 9.91281 19.7546 12.9952 19.7495C16.0827 19.7596 19.1059 19.6953 22.0648 19.5565C24.1417 19.5565 25.8226 17.703 25.8226 15.4179C25.9444 13.605 26.0003 11.7971 25.9952 9.98426C26.0067 8.17645 25.9516 6.36694 25.8297 4.55574ZM10.512 14.971V4.99246L17.8753 9.97918L10.512 14.971Z" fill="#374151"/>
</svg>
