<svg width="80" height="18" viewBox="0 0 80 18" fill="none" xmlns="http://www.w3.org/2000/svg">
<path d="M10.8801 1.04104C13.9681 1.04104 16.6401 3.00559 17.8241 5.77611H18.9121C17.6801 2.40111 14.5601 0 10.9121 0C7.26411 0 4.12811 2.40111 2.91211 5.77611H4.00011C5.13611 2.9888 7.79211 1.04104 10.8801 1.04104Z" fill="white"/>
<path d="M17.8237 12.207C16.6397 14.9943 13.9837 16.9421 10.8797 16.9421C7.77566 16.9421 5.11966 14.9776 3.93566 12.207H2.99166C2.94366 12.207 2.89566 12.207 2.84766 12.207C4.07966 15.582 7.19966 17.9999 10.8477 17.9999C14.5117 17.9999 17.6317 15.5988 18.8477 12.207C18.7997 12.207 18.7517 12.207 18.7037 12.207H17.8237Z" fill="white"/>
<path d="M20.896 8.7309L21.76 6.63203H14.64C14.112 6.63203 13.632 6.96785 13.408 7.47158L12.816 8.89881L11.872 6.61523H9.872L8.928 8.89881L8.336 7.47158C8.128 6.96785 7.648 6.63203 7.104 6.63203H0L0.863999 8.7309H6.864L7.072 9.25142H1.088L1.536 10.3261C1.792 10.9473 2.384 11.3503 3.024 11.3503H7.952H9.952L10.896 9.06672L11.84 11.3503H13.84H18.768C19.408 11.3503 20 10.9473 20.256 10.3261L20.704 9.25142H14.704L14.912 8.7309H20.896Z" fill="white"/>
<path d="M48.288 11.368V4.63477H46.416V13.3325H46.64H48.288H51.856V11.368H48.288Z" fill="white"/>
<path d="M58.7044 4.63477H56.4804H54.6084H52.4004V6.59931H54.6084V13.3325H56.4804V6.59931H58.7044V4.63477Z" fill="white"/>
<path d="M44.5439 4.63477V6.59931H40.6719L41.3439 4.63477H44.5439Z" fill="white"/>
<path d="M44.5439 7.99219V9.95674H39.5039L40.1919 7.99219H44.5439Z" fill="white"/>
<path d="M44.5436 11.3672V13.3317H38.3516L39.0236 11.3672H44.5436Z" fill="white"/>
<path d="M68.7518 9.53774L69.5838 7.13663L70.4158 9.53774H68.7518ZM70.6878 4.63477H68.4478L65.4238 13.3325H67.4078L68.0318 11.5023H71.0558L71.6798 13.3325H73.6798L70.6878 4.63477Z" fill="white"/>
<path d="M39.3763 4.63477L36.4803 12.9463L36.3523 13.3325H34.6243L34.4963 12.9463L32.7363 7.89222L30.9923 12.9463L30.8643 13.3325H29.1363L28.9923 12.9463L26.1123 4.63477H28.0963L29.9843 10.0751L31.7603 5.03775L31.8883 4.63477H33.6003L33.7283 5.03775L35.4723 10.0751L37.3763 4.63477H39.3763Z" fill="white"/>
<path d="M63.6641 4.63477C61.3761 4.63477 59.5361 6.58252 59.5361 8.96685C59.5361 11.3008 61.2801 13.215 63.4721 13.2989L64.1761 11.284C64.0161 11.3344 63.8561 11.3512 63.6801 11.3512C62.4161 11.3512 61.4241 10.2766 61.4241 8.95006C61.4241 7.62357 62.4481 6.58252 63.6801 6.58252C64.4161 6.58252 65.0721 6.95193 65.4881 7.52282L66.1921 5.5079C65.4721 4.95379 64.5921 4.63477 63.6641 4.63477Z" fill="white"/>
<path d="M78.7199 10.6787C79.5039 10.0575 79.9999 9.0836 79.9999 7.97539C79.9999 6.12838 78.5599 4.61719 76.7999 4.61719H76.2399H74.2399H72.6719L73.3439 6.58174H74.9119H76.7999C76.8479 6.58174 76.8639 6.58174 76.9119 6.58174C77.5839 6.6489 78.1279 7.23659 78.1279 7.97539C78.1279 8.36159 77.9679 8.7142 77.7439 8.98285C77.5039 9.23472 77.1839 9.38584 76.8159 9.38584H76.2879H74.3359L75.0079 11.3504H76.7999C76.8479 11.3504 76.9119 11.3504 76.9599 11.3504L77.6639 13.3317H79.6639L78.8159 10.8802L78.7199 10.6787Z" fill="white"/>
</svg>
