
<svg width="290" height="131" viewBox="0 0 290 131" fill="none" xmlns="http://www.w3.org/2000/svg">
<path d="M162.603 0.570297C162.192 0.584335 160.376 0.668488 158.561 0.752655C145.726 1.32776 141.895 1.49609 135.676 1.80469C117.307 2.73047 105.753 3.50196 101.723 4.06304C95.6665 4.91869 85.2443 9.57568 75.046 15.9861C70.9169 18.5811 65.7928 22.1019 62.0617 24.9213L60.7682 25.8892L60.0345 25.805C59.624 25.7489 58.8654 25.5806 58.343 25.4263C57.6714 25.2159 56.9998 25.1317 56.0795 25.1457C53.6418 25.1457 52.1991 25.805 48.3685 28.6525C47.8959 29.0032 47.5974 29.3539 47.3984 29.7887C47.0626 30.5462 47.1 30.8267 47.6969 31.9208C48.5053 33.4217 48.1322 34.5299 46.391 35.7502C44.7991 36.8583 42.8962 37.3212 39.2398 37.5036C35.9813 37.6579 34.7251 37.8122 32.6606 38.2891C27.8723 39.3692 23.6686 41.5714 20.4101 44.6995C19.3654 45.6954 17.7237 47.8275 15.0249 51.6709C7.43828 62.4718 2.56297 71.0704 1.03321 76.3305C0.697412 77.4808 0.560605 78.2943 0.423798 79.8654C0.000938764 84.6767 -0.110994 90.0911 0.112872 94.3834C0.560605 102.87 2.04061 108.354 4.55289 110.865C5.5976 111.903 5.72197 111.945 10.1247 112.338C14.6269 112.731 17.5371 112.969 18.0844 112.969C18.4077 112.969 18.5694 113.124 19.1415 113.979C19.5146 114.54 20.435 115.705 21.1936 116.588C25.0615 121.133 29.0787 123.868 33.8172 125.187C34.8619 125.467 35.3097 125.509 37.5483 125.524C40.4586 125.524 41.4784 125.341 44.1151 124.317C48.6795 122.536 52.5349 119.534 54.7487 116.027L55.3333 115.101L57.2361 115.017C60.6563 114.877 93.3159 114.667 94.0124 114.779C95.4302 115.017 96.0645 115.382 96.4501 116.139C96.5869 116.392 97.1465 116.42 110.106 116.911L123.613 117.43L124.458 118.243C124.918 118.692 125.391 119.155 125.515 119.267C125.714 119.464 125.826 119.366 126.958 118.103L128.177 116.743L141.472 117.023C148.785 117.191 155.501 117.36 156.397 117.402L158.026 117.486L158.312 118.594C159.294 122.424 161.968 125.902 165.5 127.95C169.953 130.531 175.201 131.106 183.31 129.886C185.076 129.605 185.698 129.451 187.041 128.932C192.141 126.926 195.921 122.031 197.787 115.031C198.036 114.119 198.235 113.292 198.235 113.18C198.235 112.927 197.837 113.011 206.381 111.651C222.188 109.126 232.847 107.555 237.511 107.064C239.874 106.811 247.684 105.717 249.065 105.451C249.45 105.367 249.475 105.395 249.674 105.97C250.085 107.148 251.353 109.799 252.137 111.132C254.263 114.723 256.738 117.037 259.325 117.865C261.365 118.524 270.046 118.622 272.994 118.033C274.586 117.724 275.867 117.248 276.563 116.714C276.849 116.504 277.284 116.336 277.695 116.28C278.056 116.238 278.702 116.027 279.125 115.803C284.796 112.787 288.105 101.271 288.478 83.2319C288.54 80.0758 288.59 79.4165 288.901 77.621C289.759 72.7536 290.082 68.6718 289.983 64.0148C289.883 59.5682 289.51 56.903 288.515 53.5646C287.993 51.8533 287.458 50.5207 286.786 49.3424C286.426 48.6972 286.413 48.599 286.413 47.1262C286.413 41.7678 285.344 36.4796 283.702 33.7724C283.068 32.7063 281.886 31.4719 281.14 31.0652C280.443 30.7005 279.287 30.3498 278.764 30.3498C278.565 30.3498 276.986 29.9991 275.282 29.5783C265.27 27.0674 254.301 24.8792 251.726 24.8792C251.104 24.8792 250.831 24.753 248.057 23.0978C243.418 20.3485 233.469 14.7376 229.949 12.9001C222.661 9.07071 218.694 7.35941 216.206 6.9386C215.796 6.88248 214.589 6.55987 213.532 6.25127C203.558 3.2635 190.101 1.21555 176.656 0.612381C173.821 0.486145 164.667 0.458084 162.603 0.570297ZM152.28 3.97888C166.732 4.34359 178.236 5.40965 188.098 7.28928C189.541 7.56982 190.922 7.8223 191.183 7.86438C191.444 7.90646 191.68 7.99062 191.705 8.04674C191.743 8.11687 190.909 9.85623 189.865 11.9322C186.917 17.7394 185.798 20.082 183.559 25.0896C181.308 30.1394 180.102 33.2113 179.306 35.9466L178.796 37.714H165.849C152.852 37.714 148.984 37.8122 143.263 38.2891C141.858 38.4013 139.619 38.5837 138.288 38.6959C136.957 38.8081 133.711 38.9905 131.075 39.1167C128.438 39.2289 124.297 39.4253 121.871 39.5515C117.207 39.804 109.683 39.7619 104.086 39.4814C101.338 39.3271 93.5025 39.0185 85.9283 38.752C83.5653 38.6678 77.2473 38.5556 71.8745 38.4855C61.8627 38.3592 61.2657 38.3312 58.0072 37.714C56.8257 37.4896 51.0798 36.1149 51.0052 36.0307C50.9554 35.9887 57.1242 31.4018 60.3081 29.1294C78.9885 15.7476 92.8806 7.65398 99.5842 6.22321C99.9449 6.15308 101.96 5.92865 104.062 5.73227C120.516 4.23137 137.654 3.60015 152.28 3.97888ZM208.781 8.9585C221.268 11.273 232.275 17.1082 238.406 24.6828C239.314 25.791 239.389 25.9453 239.202 26.0996C239.09 26.1978 237.287 27.3199 235.198 28.6104C232.66 30.1674 231.354 30.9109 231.255 30.8267C227.151 27.4322 222.562 25.5806 218.258 25.5806C216.393 25.5806 215.012 25.819 212.985 26.5064C210.323 27.4041 208.819 28.5403 208.072 30.2235C207.475 31.5701 207.475 31.8787 208.06 36.4516C208.358 38.738 208.557 40.6316 208.52 40.6737C208.408 40.814 200.635 42.5393 199.727 42.6375C198.919 42.7217 198.906 42.7217 198.011 42.0764C194.951 39.8461 190.412 38.0787 187.116 37.8262L185.947 37.7421L186.133 37.2371C186.905 35.147 189.914 28.4421 191.382 25.5385C194.379 19.6331 196.755 15.8738 199.366 12.858C201.232 10.7119 202.923 9.37931 204.478 8.81822C205.311 8.53768 206.717 8.57977 208.781 8.9585ZM25.7207 45.0221C26.3052 45.3868 26.8027 45.6954 26.8276 45.7235C26.8525 45.7375 26.3674 46.7194 25.758 47.9117C20.7956 57.5202 17.6242 66.3012 17.3133 71.2948L17.2387 72.5993L15.4228 72.5152C14.4279 72.4731 11.8037 72.3889 9.60232 72.3469C7.38853 72.2907 5.58516 72.2346 5.58516 72.1926C5.58516 72.0663 7.07761 68.798 8.13475 66.6098C13.9304 54.6026 19.0171 46.9859 22.6239 44.9379C23.9298 44.1945 24.3651 44.2085 25.7207 45.0221ZM169.878 46.004L170.438 46.2845L166.956 48.8936C155.103 57.7587 146.584 65.0247 142.069 70.1025C139.967 72.4871 138.898 74.0722 138.649 75.1803L138.512 75.7975H137.691C137.231 75.7975 132.306 75.8676 126.747 75.9518C121.175 76.036 116.598 76.0781 116.573 76.036C116.523 75.9799 124.035 69.9061 129.209 65.8102C141.572 56.0474 150.688 49.3705 153.835 47.7854C154.618 47.3927 156.459 46.9438 159.481 46.4108C163.088 45.7796 164.344 45.6533 166.893 45.6814C169.033 45.7094 169.381 45.7515 169.878 46.004ZM281.749 61.7424C282.384 62.1071 282.806 62.5139 283.292 63.2433C285.194 66.1188 286.55 71.2387 287.246 78.2242C287.52 80.9454 287.557 88.9128 287.309 91.4377C286.177 102.954 282.384 111.861 279.026 110.851C277.769 110.472 276.712 109.126 275.531 106.447C273.802 102.519 272.695 97.4693 272.173 91.2273C271.874 87.7907 271.974 81.6188 272.347 78.8133C272.919 74.6192 273.902 70.7618 275.158 67.8442C277.297 62.8084 279.71 60.5781 281.749 61.7424ZM177.689 64.3234C177.651 64.4216 177.365 65.3894 177.042 66.4695L176.47 68.4333L174.194 68.9944C172.95 69.303 171.868 69.5414 171.794 69.5414C171.595 69.5134 168.498 67.3532 168.56 67.2831C168.635 67.1849 177.378 64.1691 177.577 64.155C177.664 64.155 177.714 64.2392 177.689 64.3234ZM191.258 65.4876C194.242 67.2691 197.041 72.6274 198.608 79.5848C199.416 83.2038 199.827 86.7807 199.939 91.1572C200.274 105.479 196.456 120.67 191.83 123.391C191.121 123.798 190.499 123.896 189.479 123.756C186.967 123.405 184.678 121.077 182.937 117.107C181.109 112.927 179.99 107.681 179.306 99.9942C179.107 97.6798 179.094 88.6884 179.306 86.5282C180.388 75.2084 183.746 66.7921 187.887 65.0387C188.186 64.9265 188.708 64.8704 189.342 64.8985C190.213 64.9406 190.449 65.0107 191.258 65.4876Z" fill="#1C253E"/>
</svg>
