<svg width="40" height="46" viewBox="0 0 40 46" fill="none" xmlns="http://www.w3.org/2000/svg">
<path d="M20 0.5C25.525 0.5 30 4.975 30 10.5C30 16.025 25.525 20.5 20 20.5C14.475 20.5 10 16.025 10 10.5C10 4.975 14.475 0.5 20 0.5ZM30 26.85C30 29.5 29.3 35.675 24.525 42.575L22.5 30.5L24.85 25.8C23.3 25.625 21.675 25.5 20 25.5C18.325 25.5 16.7 25.625 15.15 25.8L17.5 30.5L15.475 42.575C10.7 35.675 10 29.5 10 26.85C4.025 28.6 0 31.75 0 35.5V45.5H40V35.5C40 31.75 36 28.6 30 26.85Z" fill="#DFE172"/>
</svg>
