<svg width="56" height="56" viewBox="0 0 56 56" fill="none" xmlns="http://www.w3.org/2000/svg">
<path d="M28.2344 0.56543C28.1758 0.56543 28.0938 0.56543 28.0234 0.579492C27.4844 0.679102 26.8398 1.17715 26.418 2.31504C25.9727 3.45176 25.8789 5.07246 26.2656 6.80801C26.6641 8.52246 27.4844 10.0002 28.3984 10.9025C29.2891 11.8049 30.0977 12.051 30.6367 11.9572C31.1992 11.8752 31.8203 11.3596 32.2422 10.2346C32.6875 9.10488 32.8047 7.46191 32.4062 5.74043C31.9961 4.00606 31.1875 2.54238 30.2734 1.6459C29.5 0.849024 28.7852 0.56543 28.2344 0.56543ZM41.7578 15.7424C40.4688 15.7775 38.8398 16.1174 37.2578 16.7854C35.4297 17.5822 34.0234 18.6486 33.25 19.6564C32.4766 20.6291 32.4062 21.3674 32.6523 21.801C32.9102 22.2346 33.625 22.6447 34.9961 22.7033C36.3672 22.7854 38.2188 22.4455 40.0352 21.6721C41.8516 20.8869 43.2812 19.8088 44.0547 18.8244C44.8281 17.8518 44.8867 17.09 44.6406 16.6564C44.3945 16.2111 43.668 15.8244 42.2969 15.7775C42.1094 15.7424 41.9453 15.7424 41.7578 15.7424ZM25.7852 26.6291C25.0117 26.6408 24.3086 26.7346 23.6758 26.8986C22.293 27.2502 21.4961 27.883 21.2383 28.6447C20.9453 29.4064 21.2383 30.3205 22.1523 31.3049C23.1133 32.2658 24.6953 33.1916 26.6641 33.7072C28.6211 34.2229 30.5078 34.2111 31.9141 33.8361C33.332 33.4728 34.1289 32.8283 34.3867 32.0783C34.6562 31.3166 34.3867 30.4143 33.4375 29.4182C32.5117 28.4572 30.9297 27.5314 28.9609 27.0275C27.8477 26.7346 26.7578 26.6174 25.7852 26.6291ZM44.6172 33.4377L37.375 36.8713C37.8672 36.8947 39.0977 36.9299 39.0977 36.9299L39.8711 37.9494L46.2812 34.6096L44.6172 33.4377ZM38.2305 33.4494L31.5039 36.6369C32.1484 36.6721 33.6719 36.6955 34.2812 36.7307L40.1172 33.965L38.2305 33.4494ZM49.082 34.715L40.8203 39.0979L42.5195 41.2893L51.25 36.0627L49.082 34.715ZM16.4102 35.7814C16.0553 35.7808 15.7015 35.8201 15.3555 35.8986C6.97656 37.8322 2.03125 37.9963 0.566406 37.9963H0.109375V50.5939C0.109375 50.5939 1.46875 50.3947 3.73047 50.383C8.10156 50.383 15.8008 51.133 23.3008 55.5158C23.6992 55.7619 24.5547 55.8557 25.6211 55.8557C28.4688 55.8557 32.793 55.176 33.7891 54.801C43.8203 51.0393 55.8906 40.715 55.8906 40.715L52.082 37.3869C52.082 37.3869 42.7305 43.3518 41.5469 43.926C30.8711 49.1643 22.2227 45.8947 22.2227 45.8947C22.2227 45.8947 36.2734 46.2463 40.7852 42.6955L38.1367 38.7111C38.1367 38.7111 28.4336 38.4416 24.9766 37.9846C23.1719 37.7502 19.2695 35.7814 16.4102 35.7814Z" fill="#DFE172"/>
</svg>
